<svg id="Groupe_368" data-name="Groupe 368" xmlns="http://www.w3.org/2000/svg" width="31.898" height="29.906" viewBox="0 0 31.898 29.906">
  <path id="Tracé_150" data-name="Tracé 150" d="M1549.014,8377.042a6.542,6.542,0,1,0,6.541,6.543A6.55,6.55,0,0,0,1549.014,8377.042Zm2.8,7.478h-1.869v1.868h-1.87v-1.868h-1.868v-1.869h1.868v-1.869h1.87v1.869h1.869Z" transform="translate(-1523.657 -8377.042)" fill="#fff"/>
  <path id="Tracé_151" data-name="Tracé 151" d="M1533.447,8399.222h17.544l2.072-7.989a8.342,8.342,0,0,1-2.044.438l-.019.074h-4.389l.07-.834a8.375,8.375,0,0,1-1.779-1.154l-.166,1.988h-3.888l-.311-3.737h2.745a8.4,8.4,0,0,1-.907-1.869h-8.8l-1.246-5.606h-7.415v1.868h5.916l3.323,14.953h-.7a2.8,2.8,0,1,0,0,5.606h1.107a2.767,2.767,0,0,0-.172.935,2.8,2.8,0,1,0,5.435-.935h4.082a2.764,2.764,0,0,0-.172.935,2.8,2.8,0,1,0,5.607,0,2.769,2.769,0,0,0-.171-.935h2.041v-1.868h-17.756a.935.935,0,0,1,0-1.87Zm13.008-5.606h4.06l-.97,3.738h-3.4Zm-1.875,0-.312,3.738h-2.953l-.312-3.738Zm-5.14,3.738h-3.375l-.83-3.738h3.894Zm-5.452-9.346h4.672l.312,3.737h-4.154Zm4.13,15.887a.935.935,0,1,1-.934-.935A.934.934,0,0,1,1538.12,8403.895Zm9.345,0a.934.934,0,1,1-.934-.935A.934.934,0,0,1,1547.465,8403.895Z" transform="translate(-1524.912 -8376.793)" fill="#fff"/>
</svg>
