<svg xmlns="http://www.w3.org/2000/svg" width="61.07" height="61.07" viewBox="0 0 61.07 61.07">
  <g id="Groupe_144" data-name="Groupe 144" transform="translate(-3791.308 -2303.14)">
    <g id="Groupe_143" data-name="Groupe 143">
      <path id="Tracé_215" data-name="Tracé 215" d="M3843.45,2312.064a30.534,30.534,0,1,0-21.608,52.146h.243a30.524,30.524,0,0,0,15.029-4.087l-1.792-3.1a26.969,26.969,0,1,1,8.086-7.174,1.719,1.719,0,0,1-1.275.69,1.8,1.8,0,0,1-1.4-.523l-2.434-2.434,1.08-1.081-8.434-8.434-3.373,3.373a15.736,15.736,0,0,1-13.5-13.494l3.373-3.374-8.434-8.434-4.658,4.658a28.74,28.74,0,0,0,30.363,30.363l1.048-1.047,2.434,2.434a5.36,5.36,0,0,0,8.068-.547,30.585,30.585,0,0,0-2.819-39.937Z" fill="#00a99a"/>
    </g>
  </g>
</svg>
