<svg xmlns="http://www.w3.org/2000/svg" width="40.245" height="49.444" viewBox="0 0 40.245 49.444">
  <g id="Icon" transform="translate(-11084.715 -1611.482)">
    <path id="Tracé_248" data-name="Tracé 248" d="M11104.837,1611.482a15.613,15.613,0,0,0-15.522,15.687c0,2.934,1.292,6.575,3.174,10.206a99.816,99.816,0,0,0,11.041,16.05,1.723,1.723,0,0,0,2.617,0,99.912,99.912,0,0,0,11.04-16.05c1.882-3.631,3.174-7.272,3.174-10.206a15.613,15.613,0,0,0-15.523-15.687Zm0,9.2a6.324,6.324,0,1,0,6.324,6.324A6.326,6.326,0,0,0,11104.837,1620.681Z" fill="#00a99a" fill-rule="evenodd"/>
    <path id="Tracé_249" data-name="Tracé 249" d="M11115.839,1648.57a14.241,14.241,0,0,1,4.476,2.07c.689.524,1.2,1.037,1.2,1.662a1.621,1.621,0,0,1-.5,1.035,7.211,7.211,0,0,1-2.107,1.5c-3.17,1.621-8.293,2.636-14.062,2.636s-10.891-1.015-14.06-2.636a7.2,7.2,0,0,1-2.109-1.5,1.621,1.621,0,0,1-.5-1.035c0-.625.506-1.138,1.2-1.662a14.235,14.235,0,0,1,4.475-2.07,1.725,1.725,0,0,0-.993-3.3,15.823,15.823,0,0,0-6.389,3.332,5.165,5.165,0,0,0-1.738,3.7,5.776,5.776,0,0,0,2.769,4.567c3.257,2.355,9.8,4.057,17.354,4.057s14.1-1.7,17.354-4.057a5.776,5.776,0,0,0,2.769-4.567,5.166,5.166,0,0,0-1.739-3.7,15.823,15.823,0,0,0-6.389-3.332,1.725,1.725,0,0,0-.993,3.3Z" fill="#00a99a" fill-rule="evenodd"/>
  </g>
</svg>
