<svg xmlns="http://www.w3.org/2000/svg" width="43.246" height="43.415" viewBox="0 0 43.246 43.415">
  <g id="Groupe_174" data-name="Groupe 174" transform="translate(-11081.714 -1831.796)">
    <path id="Tracé_242" data-name="Tracé 242" d="M11124.5,1849.219l-6.326-5.271v-6.471a1.272,1.272,0,0,0-1.271-1.272h-8l-4.729-4.1a1.27,1.27,0,0,0-1.666,0l-4.729,4.1h-8.006a1.272,1.272,0,0,0-1.271,1.272v6.471l-6.326,5.271a1.273,1.273,0,0,0-.458.977v23.743a1.273,1.273,0,0,0,1.272,1.272h40.7a1.273,1.273,0,0,0,1.271-1.272V1850.2a1.273,1.273,0,0,0-.458-.977Zm-28.325,12.849-11.919,9.27V1852.8Zm2.509,1.272h9.3l11.993,9.327h-33.288Zm11.811-1.272,11.92-9.271v18.541Zm11.164-11.906-3.484,2.71v-5.613Zm-18.323-15.411,1.678,1.454h-3.355Zm12.295,4v16.1l-7.644,5.946h-9.3l-7.644-5.946v-16.1Zm-27.134,14.123-3.484-2.71,3.484-2.9Z" fill="#00a99a"/>
    <path id="Tracé_243" data-name="Tracé 243" d="M11097.655,1857.128a9.394,9.394,0,0,0,5.478,1.971h.036a1.272,1.272,0,0,0,.035-2.544,6.784,6.784,0,0,1-1.872-13.245,6.783,6.783,0,0,1,8.548,4.483,5.92,5.92,0,0,1-.375,3.928,1.786,1.786,0,0,1-1.624,1.225.409.409,0,0,1-.265-.135.828.828,0,0,1-.23-.579l.035-7.067a1.272,1.272,0,0,0-1.265-1.278h-.007a1.271,1.271,0,0,0-1.248,1.035,4.025,4.025,0,0,0-1.886-.462,4.454,4.454,0,0,0-3.282,1.507,5.509,5.509,0,0,0-1.359,3.719,5.911,5.911,0,0,0,1.277,3.759,4.279,4.279,0,0,0,3.279,1.638,3.958,3.958,0,0,0,2.519-.916,3.08,3.08,0,0,0,.364.438,2.907,2.907,0,0,0,2.067.885,4.3,4.3,0,0,0,3.988-2.829,8.376,8.376,0,0,0,.464-5.543l-.011-.04a9.327,9.327,0,1,0-14.667,10.049Zm5.275-4.588c-.973,0-2.013-1.147-2.013-2.853,0-1.679,1.067-2.682,2.1-2.682,1.052,0,1.794,1.025,1.841,2.511l0,.32c-.06,1.506-.9,2.7-1.923,2.7Z" fill="#00a99a"/>
  </g>
</svg>
