<svg xmlns="http://www.w3.org/2000/svg" width="40.506" height="41.596" viewBox="0 0 40.506 41.596">
  <g id="Groupe_175" data-name="Groupe 175" transform="translate(-11084.454 -1730.94)">
    <path id="Tracé_244" data-name="Tracé 244" d="M11119.491,1748.4c.05-5.864-4.945-11.24-11.135-11.984-.123-.014-.258-.036-.4-.06a5.761,5.761,0,0,0-.943-.1,1.585,1.585,0,0,0-1.7,1.423,1.642,1.642,0,0,0,.246,1.29,2.439,2.439,0,0,0,1.753.754c.174.024.338.046.476.077,5.56,1.243,7.433,3.2,8.348,8.71.022.135.032.3.043.477.04.659.123,2.03,1.6,2.03h0a2.619,2.619,0,0,0,.392-.032c1.372-.208,1.329-1.462,1.31-2.064a2.754,2.754,0,0,1,0-.437A.752.752,0,0,0,11119.491,1748.4Z" fill="#00a99a"/>
    <path id="Tracé_245" data-name="Tracé 245" d="M11106.654,1734.259c.165.012.32.023.451.043,9.131,1.4,13.33,5.731,14.494,14.934.02.156.022.347.026.549.011.719.035,2.215,1.642,2.246h.05a1.577,1.577,0,0,0,1.191-.452,2.519,2.519,0,0,0,.438-1.924c-.007-.153-.015-.3-.013-.424.116-9.412-8.03-17.947-17.435-18.265a.719.719,0,0,0-.114.006.753.753,0,0,1-.11.006c-.095,0-.21-.008-.332-.016-.148-.01-.316-.022-.486-.022a1.653,1.653,0,0,0-1.818,1.7C11104.554,1734.106,11105.972,1734.209,11106.654,1734.259Z" fill="#00a99a"/>
    <path id="Tracé_246" data-name="Tracé 246" d="M11121.159,1761.13c-.194-.148-.4-.3-.583-.453-1-.8-2.059-1.542-3.083-2.257l-.638-.446a6.368,6.368,0,0,0-3.612-1.371,4.679,4.679,0,0,0-3.9,2.468,2.071,2.071,0,0,1-1.777,1.079,3.546,3.546,0,0,1-1.432-.359,17.228,17.228,0,0,1-9-8.765c-.838-1.881-.565-3.111.907-4.112a4.162,4.162,0,0,0,2.284-3.65c-.125-2.3-5.2-9.216-7.335-10a4.163,4.163,0,0,0-2.831-.008,8.192,8.192,0,0,0-5.1,4.195,7.793,7.793,0,0,0,.11,6.293,50.764,50.764,0,0,0,11.142,16.961,54.012,54.012,0,0,0,16.9,11.222,9.321,9.321,0,0,0,1.671.5c.155.035.289.064.388.091a.6.6,0,0,0,.164.023h.052c3.1,0,6.819-2.831,7.962-6.059C11124.456,1763.65,11122.628,1762.253,11121.159,1761.13Z" fill="#00a99a"/>
    <path id="Tracé_247" data-name="Tracé 247" d="M11108.025,1741.735a1.924,1.924,0,0,0-2.022,1.165,1.563,1.563,0,0,0,.064,1.357,2.033,2.033,0,0,0,1.532.81,3.619,3.619,0,0,1,3.359,3.617,1.711,1.711,0,0,0,1.63,1.689h0a1.58,1.58,0,0,0,.193-.011c1.035-.123,1.537-.883,1.491-2.26a6.452,6.452,0,0,0-2.014-4.365A6.011,6.011,0,0,0,11108.025,1741.735Z" fill="#00a99a"/>
  </g>
</svg>
