<svg xmlns="http://www.w3.org/2000/svg" width="62.372" height="62.373" viewBox="0 0 62.372 62.373">
  <path id="Product_Return" data-name="Product Return" d="M3854.851,2433.792a31.186,31.186,0,0,1-62.372,0,1.949,1.949,0,1,1,3.9,0,27.288,27.288,0,1,0,27.288-27.288,27.006,27.006,0,0,0-19.051,7.8h7.356a1.949,1.949,0,0,1,0,3.9h-11.7a1.949,1.949,0,0,1-1.949-1.95v-11.694a1.949,1.949,0,1,1,3.9,0v6.649a30.859,30.859,0,0,1,21.441-8.6A31.222,31.222,0,0,1,3854.851,2433.792Zm-13.644-7.8v17.542a1.951,1.951,0,0,1-1.264,1.826l-15.593,5.847a1.957,1.957,0,0,1-1.371,0l-15.593-5.847a1.951,1.951,0,0,1-1.263-1.826V2426a1.952,1.952,0,0,1,1.263-1.826l15.593-5.847a1.971,1.971,0,0,1,1.371,0l15.593,5.847A1.951,1.951,0,0,1,3841.207,2426Zm-27.585,0,10.043,3.765,10.042-3.765-10.042-3.765Zm-3.6,16.191,11.7,4.385v-13.377l-11.7-4.386Zm27.288,0v-13.378l-11.7,4.386v13.377Z" transform="translate(-3792.479 -2402.605)" fill="#00a99a"/>
</svg>
