<svg xmlns="http://www.w3.org/2000/svg" width="60.93" height="67.089" viewBox="0 0 60.93 67.089">
  <g id="Groupe_667" data-name="Groupe 667" transform="translate(-189.56 -2408.83)">
    <path id="Tracé_212" data-name="Tracé 212" d="M3506.2,2419.7a11.7,11.7,0,0,1-7.223-7.263,5.307,5.307,0,0,0-5.023-3.6h-29.268a5.306,5.306,0,0,0-5.022,3.6,11.7,11.7,0,0,1-7.224,7.263,5.325,5.325,0,0,0-3.585,5.038v7.4a47.218,47.218,0,0,0,28.344,43.342,5.354,5.354,0,0,0,4.242,0,47.221,47.221,0,0,0,28.344-43.342v-7.4A5.325,5.325,0,0,0,3506.2,2419.7Zm-.346,12.442a43.286,43.286,0,0,1-25.977,39.735,1.407,1.407,0,0,1-1.115,0,43.287,43.287,0,0,1-25.976-39.735v-7.4a1.39,1.39,0,0,1,.932-1.319,15.664,15.664,0,0,0,9.667-9.717,1.378,1.378,0,0,1,1.3-.938h29.268a1.377,1.377,0,0,1,1.3.938,15.664,15.664,0,0,0,9.667,9.717,1.388,1.388,0,0,1,.932,1.319Z" transform="translate(-3259.295)" fill="#00a99a"/>
    <path id="Tracé_213" data-name="Tracé 213" d="M3487.672,2434.314h-.134v-5.6a8.218,8.218,0,0,0-16.436,0v5.6h-.134a4.738,4.738,0,0,0-4.733,4.733v11.312a8.826,8.826,0,0,0,8.815,8.816h8.54a8.825,8.825,0,0,0,8.815-8.816v-11.312A4.738,4.738,0,0,0,3487.672,2434.314Zm-12.639-5.6a4.287,4.287,0,1,1,8.574,0v5.6h-8.574Zm13.441,21.643a4.889,4.889,0,0,1-4.884,4.884h-8.54a4.889,4.889,0,0,1-4.884-4.884v-11.312a.8.8,0,0,1,.8-.8h16.7a.8.8,0,0,1,.8.8Z" transform="translate(-3259.295)" fill="#00a99a"/>
    <path id="Tracé_214" data-name="Tracé 214" d="M3479.32,2442.922a1.965,1.965,0,0,0-1.965,1.966v3.713a1.965,1.965,0,1,0,3.931,0v-3.713A1.966,1.966,0,0,0,3479.32,2442.922Z" transform="translate(-3259.295)" fill="#00a99a"/>
  </g>
</svg>
