<svg xmlns="http://www.w3.org/2000/svg" width="55.362" height="51.355" viewBox="0 0 55.362 51.355">
  <g id="Groupe_23" data-name="Groupe 23" transform="translate(-3318.701 -9531.982)">
    <path id="Tracé_35" data-name="Tracé 35" d="M3372.767,9581.245h-10.936l.017-15.99,1.763-1.763a8.277,8.277,0,0,0,5.525-.929.8.8,0,1,0-.78-1.389,6.663,6.663,0,0,1-3.283.855l4.169-4.169a.8.8,0,0,0-1.126-1.126l-4.169,4.169a6.7,6.7,0,0,1,7.75-6.624,6.752,6.752,0,0,1-.916,4.568.8.8,0,0,0,1.355.838,8.355,8.355,0,0,0,1.014-6.267.8.8,0,0,0-.593-.593,8.3,8.3,0,0,0-10.072,9.539l-.637.637v-10.2l1.319-1.318a6.843,6.843,0,0,0,1.133.1,6.8,6.8,0,0,0,6.6-8.358.8.8,0,0,0-.593-.593,6.793,6.793,0,0,0-8.263,7.73l-.923.922-.922-.922a6.795,6.795,0,0,0-8.264-7.73.8.8,0,0,0-.593.593,6.8,6.8,0,0,0,6.6,8.358,6.866,6.866,0,0,0,1.134-.1l1.187,1.188v10.2l-.506-.506a8.3,8.3,0,0,0-10.072-9.539.8.8,0,0,0-.593.593,8.283,8.283,0,0,0,9.539,10.072l1.616,1.616v16.137h-16.376v-3.956a.8.8,0,1,0-1.592,0v3.956h-7.834a.8.8,0,0,0,0,1.593h38.33a.8.8,0,0,0,0-1.593Zm-7.7-35.687a2.359,2.359,0,1,1-.383,4.408l3.048-3.048a.8.8,0,0,0-1.126-1.126l-3.048,3.047A5.173,5.173,0,0,1,3365.063,9545.559Zm-9.431.234a.8.8,0,0,0-1.126,1.126l3.048,3.047a2.358,2.358,0,1,1,1.126-1.126Zm-2.64,12.068,4.169,4.169a3.209,3.209,0,1,1,1.126-1.127l-4.169-4.168a.8.8,0,0,0-1.126,1.126Z" fill="#00a99a" stroke="#00a99a" stroke-miterlimit="10" stroke-width="1"/>
    <path id="Tracé_36" data-name="Tracé 36" d="M3335.341,9570.168a5.727,5.727,0,0,0,5.484.641l1.446,1.026v1.738a.8.8,0,0,0,1.592,0v-1.738l1.446-1.026a5.724,5.724,0,0,0,5.484-.642,5.58,5.58,0,0,0,.734-.618,3.42,3.42,0,0,0-3.9-5.492,5.769,5.769,0,0,0-3.243,5.454l-.522.371v-4.705a5.74,5.74,0,0,0,2.65-4.845,5.856,5.856,0,0,0-.079-.956,3.42,3.42,0,0,0-6.735,0,5.754,5.754,0,0,0,2.571,5.8v4.705l-.523-.371a5.744,5.744,0,0,0-2.417-4.966,5.935,5.935,0,0,0-.826-.488,3.42,3.42,0,0,0-3.9,5.492,5.8,5.8,0,0,0,.734.619Zm12.384-4.323a4.242,4.242,0,0,1,.6-.354,1.828,1.828,0,0,1,2.08,2.931,4.308,4.308,0,0,1-.533.448,4.159,4.159,0,0,1-2.873.742l2.163-1.535a.8.8,0,1,0-.922-1.3l-2.163,1.534a4.155,4.155,0,0,1,1.649-2.467Zm-6.512-5.513a4.2,4.2,0,0,1,.057-.693h0a1.828,1.828,0,0,1,3.594,0,4.2,4.2,0,0,1,.057.693,4.157,4.157,0,0,1-1.058,2.773v-2.653a.8.8,0,0,0-1.592,0v2.653A4.157,4.157,0,0,1,3341.213,9560.332Zm-5.661,5.759a1.731,1.731,0,0,1,2.258-.6,4.172,4.172,0,0,1,2.248,2.821l-2.163-1.534a.8.8,0,1,0-.922,1.3l2.163,1.535a4.159,4.159,0,0,1-2.873-.742,4.308,4.308,0,0,1-.533-.448,1.747,1.747,0,0,1-.178-2.33Z" fill="#00a99a" stroke="#00a99a" stroke-miterlimit="10" stroke-width="1"/>
    <path id="Tracé_37" data-name="Tracé 37" d="M3340.976,9549l1.295-1.295v6.146a.8.8,0,0,0,1.592,0V9547.7l1.295,1.295a.8.8,0,1,0,1.127-1.126l-2.655-2.654a.8.8,0,0,0-1.126,0l-2.655,2.654a.8.8,0,0,0,1.127,1.126Z" fill="#00a99a" stroke="#00a99a" stroke-miterlimit="10" stroke-width="1"/>
    <path id="Tracé_38" data-name="Tracé 38" d="M3359.026,9536.574l1.3-1.295v6.146a.8.8,0,1,0,1.592,0v-6.146l1.295,1.295a.8.8,0,1,0,1.127-1.126l-2.655-2.654a.8.8,0,0,0-1.126,0l-2.654,2.654a.8.8,0,0,0,1.126,1.126Z" fill="#00a99a" stroke="#00a99a" stroke-miterlimit="10" stroke-width="1"/>
    <path id="Tracé_39" data-name="Tracé 39" d="M3328.9,9577.391a5.111,5.111,0,0,0,5.2-2.038,3.076,3.076,0,0,0-4.284-4.283,5.231,5.231,0,0,0-.649.55,5.1,5.1,0,0,0-1.389,4.646l-.738.738-.737-.738a5.107,5.107,0,0,0-2.039-5.2,3.076,3.076,0,0,0-4.284,4.283,5.206,5.206,0,0,0,.551.649,5.08,5.08,0,0,0,4.645,1.389l1.068,1.068v2.786H3320a.8.8,0,0,0,0,1.593h10.671a.8.8,0,0,0,0-1.593h-2.837v-2.786Zm1.389-4.646a3.54,3.54,0,0,1,.448-.379,1.483,1.483,0,0,1,2.062,2.062,3.555,3.555,0,0,1-.379.448,3.507,3.507,0,0,1-2,1l1.424-1.423a.8.8,0,0,0-1.127-1.126l-1.423,1.423a3.5,3.5,0,0,1,1-2Zm-6.934.577a.8.8,0,0,0-1.126,1.126l1.423,1.423a3.524,3.524,0,0,1-2.379-1.443,1.417,1.417,0,0,1,.175-1.887,1.522,1.522,0,0,1,1.053-.459,1.419,1.419,0,0,1,.835.284,3.553,3.553,0,0,1,.448.38,3.508,3.508,0,0,1,1,2Z" fill="#00a99a" stroke="#00a99a" stroke-miterlimit="10" stroke-width="1"/>
    <path id="Tracé_40" data-name="Tracé 40" d="M3324.943,9564.18l1.295-1.295v6.147a.8.8,0,1,0,1.593,0v-6.147l1.295,1.295a.8.8,0,0,0,1.126-1.126l-2.655-2.653a.8.8,0,0,0-1.126,0l-2.654,2.653a.8.8,0,0,0,1.126,1.126Z" fill="#00a99a" stroke="#00a99a" stroke-miterlimit="10" stroke-width="1"/>
  </g>
</svg>
