<svg xmlns="http://www.w3.org/2000/svg" width="57.032" height="61.8" viewBox="0 0 57.032 61.8">
  <g id="Groupe_21" data-name="Groupe 21" transform="translate(-3327.456 -9215.546)">
    <path id="Tracé_22" data-name="Tracé 22" d="M3360.213,9243.512a.889.889,0,0,0,1.256-.082l2.141-2.437a.89.89,0,1,0-1.337-1.174l-2.142,2.438a.89.89,0,0,0,.082,1.256Z" fill="#00a99a" stroke="#00a99a" stroke-miterlimit="10" stroke-width="1"/>
    <path id="Tracé_23" data-name="Tracé 23" d="M3370.444,9241.3a.89.89,0,0,0-.976.794l-.331,3.227a.89.89,0,0,0,.795.976c.031,0,.061,0,.092,0a.891.891,0,0,0,.884-.8l.33-3.225a.89.89,0,0,0-.794-.977Z" fill="#00a99a" stroke="#00a99a" stroke-miterlimit="10" stroke-width="1"/>
    <path id="Tracé_24" data-name="Tracé 24" d="M3379.212,9241.483a.89.89,0,1,0-1.693.548l1,3.087a.89.89,0,1,0,1.693-.547Z" fill="#00a99a" stroke="#00a99a" stroke-miterlimit="10" stroke-width="1"/>
    <path id="Tracé_25" data-name="Tracé 25" d="M3358.947,9233.623l-3.16.757a.89.89,0,0,0,.415,1.731l3.16-.758a.89.89,0,1,0-.415-1.73Z" fill="#00a99a" stroke="#00a99a" stroke-miterlimit="10" stroke-width="1"/>
    <path id="Tracé_26" data-name="Tracé 26" d="M3355.318,9226.8l3.2.575a.875.875,0,0,0,.159.015.89.89,0,0,0,.156-1.766l-3.2-.575a.89.89,0,1,0-.315,1.751Z" fill="#00a99a" stroke="#00a99a" stroke-miterlimit="10" stroke-width="1"/>
    <path id="Tracé_27" data-name="Tracé 27" d="M3372.781,9222.133a5.634,5.634,0,1,0,5.645,5.632,5.647,5.647,0,0,0-5.645-5.632Zm0,9.488a3.854,3.854,0,1,1,3.865-3.856A3.867,3.867,0,0,1,3372.781,9231.621Z" fill="#00a99a" stroke="#00a99a" stroke-miterlimit="10" stroke-width="1"/>
    <path id="Tracé_28" data-name="Tracé 28" d="M3382.668,9227.914l1.224-3.157a.891.891,0,0,0-.373-1.086l-2.654-1.583-.871-3.272a.89.89,0,0,0-.939-.657l-3.08.273-2.633-2.137a.89.89,0,0,0-1.145.02l-2.331,2.026-3.393-.186a.892.892,0,0,0-.916.688l-.691,3-2.849,1.84a.89.89,0,0,0-.336,1.1l1.21,2.835-1.221,3.157a.889.889,0,0,0,.373,1.085l2.65,1.584.872,3.272a.89.89,0,0,0,.938.657l3.081-.274,2.637,2.139a.89.89,0,0,0,1.144-.021l2.331-2.026,3.389.186a.889.889,0,0,0,.916-.688l.692-3.006,2.852-1.839a.889.889,0,0,0,.336-1.1Zm-1.779.366,1.06,2.478-2.525,1.627a.892.892,0,0,0-.385.549l-.6,2.626-3-.163a.889.889,0,0,0-.633.217l-2.039,1.772-2.336-1.893a.9.9,0,0,0-.561-.2l-.079,0-2.693.24-.772-2.9a.889.889,0,0,0-.4-.534l-2.317-1.385,1.082-2.794a.9.9,0,0,0-.012-.671l-1.057-2.478,2.522-1.628a.887.887,0,0,0,.385-.549l.6-2.626,3,.164a.891.891,0,0,0,.633-.217l2.039-1.772,2.333,1.893a.894.894,0,0,0,.639.2l2.694-.24.772,2.9a.886.886,0,0,0,.4.536l2.319,1.385-1.084,2.793A.889.889,0,0,0,3380.889,9228.28Z" fill="#00a99a" stroke="#00a99a" stroke-miterlimit="10" stroke-width="1"/>
    <path id="Tracé_29" data-name="Tracé 29" d="M3360.528,9267.193a25.366,25.366,0,0,0-12.5-3.436v-3.61l3.221-2.173a13.953,13.953,0,0,0,4.911,1.01,8.643,8.643,0,0,0,2.5-.352.89.89,0,0,0-.512-1.705,8.867,8.867,0,0,1-5.039-.205l3.283-2.214a.89.89,0,1,0-1-1.476l-3.29,2.219c.26-2.62,1.172-4.574,2.679-5.7,1.809-1.354,4.484-1.557,7.733-.587.125.038.236.07.334.1l.019.006,0,.024c-.01.1-.022.21-.034.339a10.51,10.51,0,0,1-1.847,5.5.891.891,0,0,0,1.414,1.083,12.242,12.242,0,0,0,2.206-6.425c.011-.118.022-.222.032-.314a1.458,1.458,0,0,0-1.291-1.928c-.092-.025-.2-.056-.317-.093-3.814-1.139-7.035-.839-9.313.867-2.2,1.647-3.392,4.538-3.464,8.376l-2.224,1.5v-8.671c3.3-2.313,5.115-5.038,5.252-7.905.141-2.955-1.483-5.9-4.7-8.517-.1-.08-.184-.152-.26-.216a1.485,1.485,0,0,0-2.378,0c-.075.063-.16.134-.257.213-3.212,2.616-4.836,5.56-4.7,8.515.137,2.867,1.952,5.593,5.254,7.907V9258l-2.227-1.5c-.071-3.837-1.263-6.726-3.462-8.373-2.278-1.707-5.5-2.007-9.316-.867-.118.036-.223.066-.316.093a1.774,1.774,0,0,0-1.118.64,1.751,1.751,0,0,0-.172,1.272c.009.1.02.2.031.327a12.3,12.3,0,0,0,2.2,6.426.89.89,0,0,0,1.415-1.081,10.568,10.568,0,0,1-1.847-5.5c-.012-.131-.023-.245-.034-.347l0-.018.016-.006c.1-.028.212-.061.335-.1,3.252-.971,5.927-.768,7.736.587,1.506,1.129,2.418,3.081,2.677,5.7l-3.287-2.217a.89.89,0,1,0-.995,1.476l3.283,2.214a8.867,8.867,0,0,1-5.039.205.89.89,0,0,0-.512,1.705,8.648,8.648,0,0,0,2.5.352,13.943,13.943,0,0,0,4.91-1.01l3.222,2.173v3.61a25.362,25.362,0,0,0-12.5,3.436c-3.723,2.3-5.783,5.414-5.8,8.758a.889.889,0,0,0,.89.895h36.594a.889.889,0,0,0,.89-.895c-.018-3.344-2.079-6.454-5.8-8.758Zm-17.751-25.855c-.113-2.368,1.284-4.806,4.041-7.051.1-.084.194-.16.275-.228l.048-.041.046.038c.081.068.172.146.277.23,2.758,2.246,4.156,4.685,4.043,7.053-.095,2-1.29,3.974-3.474,5.76v-5.867a.89.89,0,1,0-1.78,0v5.867c-2.186-1.788-3.38-3.758-3.476-5.762Zm-12.972,33.729c.353-2.377,2.059-4.609,4.888-6.36a25.948,25.948,0,0,1,24.9,0c2.83,1.752,4.536,3.983,4.889,6.36Z" fill="#00a99a" stroke="#00a99a" stroke-miterlimit="10" stroke-width="1"/>
  </g>
</svg>
