<svg xmlns="http://www.w3.org/2000/svg" width="47.083" height="49.583" viewBox="0 0 47.083 49.583">
  <path id="Tracé_34" data-name="Tracé 34" d="M3352.72,9474.186a3.7,3.7,0,1,1-5.3-3.335v-20.057a1.6,1.6,0,0,1,3.2,0v20.057A3.706,3.706,0,0,1,3352.72,9474.186Zm-27.59-35.286a4.4,4.4,0,1,1-4.4-4.4A4.4,4.4,0,0,1,3325.13,9438.9Zm-3.2,0a1.2,1.2,0,1,0-1.2,1.2A1.2,1.2,0,0,0,3321.931,9438.9Zm15.014,13.05a1.6,1.6,0,0,0-2.251.216,3.653,3.653,0,0,1-6.465-2.32v-4.7a3.653,3.653,0,0,1,6.464-2.321,1.6,1.6,0,0,0,2.468-2.036,6.848,6.848,0,0,0-12.131,4.357v4.7a6.848,6.848,0,0,0,12.131,4.356A1.6,1.6,0,0,0,3336.945,9451.949Zm26.471-10.251a1.6,1.6,0,0,1-1.6,1.6h-6.1v6.8h4.1a1.6,1.6,0,1,1,0,3.2h-4.1v6.8h2.1a1.6,1.6,0,0,1,0,3.2h-2.1v3.61a9.9,9.9,0,1,1-13.4,0v-25.7a6.7,6.7,0,0,1,13.3-1.1h6.19A1.6,1.6,0,0,1,3363.416,9441.7Zm-7.7,32.487a6.657,6.657,0,0,0-2.583-5.283,1.6,1.6,0,0,1-.616-1.263V9441.2a3.5,3.5,0,0,0-7,0v26.441a1.6,1.6,0,0,1-.616,1.263,6.7,6.7,0,1,0,10.813,5.283Z" transform="translate(-3316.333 -9434.5)" fill="#00a99a"/>
</svg>
