<svg xmlns="http://www.w3.org/2000/svg" width="43.065" height="50.576" viewBox="0 0 43.065 50.576">
  <g id="Groupe_22" data-name="Groupe 22" transform="translate(-3325.005 -9328.398)">
    <path id="Tracé_30" data-name="Tracé 30" d="M3352.241,9370.762a10.928,10.928,0,0,0-4.22-1.311v-2.72l3.473-3.474c11.509,1.985,18.84-6.443,15.942-18.04-11.354-2.874-20.051,4.235-18.041,15.942l-2.857,2.857-2.858-2.857c2.01-11.711-6.689-18.815-18.041-15.942-2.9,11.6,4.439,20.025,15.943,18.04l3.472,3.474v2.761a10.853,10.853,0,0,0-3.756,1.2l-9.681,5.312h-5.455v2.968h40.752v-2.968h-5.444Zm2.647-20.393c2.323-2.323,5.851-3.237,10.01-2.613,1.243,7.562-3.17,13.157-10.706,12.8l6.55-6.55-2.1-2.1-6.55,6.55a10.565,10.565,0,0,1,2.794-8.092Zm-16.556,10.2c-7.267.064-11.351-5.489-10.154-12.814,7.56-1.244,13.157,3.17,12.8,10.705l-6.55-6.549-2.1,2.1,6.55,6.55c-.185.007-.369.011-.551.011Zm4.394,12.727a8.782,8.782,0,0,1,8.049.045l4.689,2.665h-17.678Z" fill="#00a99a"/>
    <path id="Tracé_31" data-name="Tracé 31" d="M3346.538,9344.949a5.267,5.267,0,0,0,5.26-5.261c0-.448,0-1.812-2.2-4.648a28.5,28.5,0,0,0-2.005-2.308l-1.056-1.07-1.057,1.07a28.622,28.622,0,0,0-2,2.308c-2.2,2.836-2.2,4.2-2.2,4.648A5.267,5.267,0,0,0,3346.538,9344.949Zm0-8.977c1.222,1.437,2.293,3.04,2.293,3.716a2.294,2.294,0,0,1-4.587,0c0-.676,1.071-2.279,2.294-3.716Z" fill="#00a99a"/>
    <path id="Tracé_32" data-name="Tracé 32" d="M3360.5,9340.2a4.689,4.689,0,0,0,4.683-4.684c0-1.1-.607-2.394-1.911-4.074a24.1,24.1,0,0,0-1.716-1.976l-1.056-1.069-1.056,1.069a24.542,24.542,0,0,0-1.716,1.976c-1.3,1.681-1.91,2.976-1.91,4.074A4.688,4.688,0,0,0,3360.5,9340.2Zm-.439-6.924c.148-.191.3-.375.439-.546.143.171.292.354.439.546,1.257,1.624,1.276,2.234,1.276,2.24a1.715,1.715,0,1,1-3.43,0S3358.8,9334.9,3360.061,9333.277Z" fill="#00a99a"/>
    <path id="Tracé_33" data-name="Tracé 33" d="M3332.575,9340.2a4.688,4.688,0,0,0,4.682-4.684c0-1.1-.607-2.394-1.91-4.074a24.4,24.4,0,0,0-1.716-1.976l-1.056-1.069-1.056,1.069a24.321,24.321,0,0,0-1.716,1.976c-1.3,1.681-1.91,2.976-1.91,4.074A4.688,4.688,0,0,0,3332.575,9340.2Zm-.439-6.924c.148-.192.3-.377.442-.55a7.635,7.635,0,0,1,1.712,2.79,1.715,1.715,0,1,1-3.43,0S3330.879,9334.9,3332.136,9333.277Z" fill="#00a99a"/>
  </g>
</svg>
